<?xml version="1.0" encoding="utf-8"?>
<!-- Generator: Adobe Illustrator 24.1.2, SVG Export Plug-In . SVG Version: 6.00 Build 0)  -->
<svg version="1.1" id="Food_Delivery_Part_2" xmlns="http://www.w3.org/2000/svg" xmlns:xlink="http://www.w3.org/1999/xlink"
	 x="0px" y="0px" viewBox="0 0 24 24" style="enable-background:new 0 0 24 24;" xml:space="preserve">
<g>
	<path d="M15.2,22.001c-0.249,0-0.501-0.016-0.753-0.048c-2.697-0.341-5.284-1.733-7.69-4.14c-2.406-2.405-3.798-4.992-4.14-7.69
		C2.333,7.876,3.341,5.689,5.25,4.417l3.049-2.032l4.822,4.822l-3.154,3.154c0.134,0.411,0.55,1.312,1.74,2.503
		c1.19,1.19,2.091,1.605,2.522,1.747l3.135-3.161l4.822,4.822l-2.033,3.049C19.024,21.016,17.174,22.001,15.2,22.001z M8.044,4.959
		L6.359,6.081C5.106,6.917,4.416,8.405,4.602,9.872c0.284,2.247,1.485,4.443,3.569,6.527c2.085,2.085,4.281,3.286,6.527,3.569
		c1.473,0.188,2.956-0.503,3.791-1.757l1.123-1.686l-2.248-2.248l-1.74,1.739c-0.539,0.538-1.312,0.725-2.02,0.494
		c-0.732-0.241-1.902-0.824-3.312-2.233C8.884,12.87,8.301,11.7,8.06,10.967c-0.232-0.71-0.043-1.483,0.494-2.02l1.74-1.74
		L8.044,4.959z"/>
</g>
</svg>
